<svg width="54" height="54" viewBox="0 0 54 54" fill="none" xmlns="http://www.w3.org/2000/svg">
    <path d="M27 54C41.9117 54 54 41.9117 54 27C54 12.0884 41.9117 1.05679e-06 27 2.36041e-06C12.0884 3.66402e-06 -3.66402e-06 12.0884 -2.36041e-06 27C-1.05679e-06 41.9117 12.0884 54 27 54ZM26.2437 14.7671C26.9627 14.0481 28.0876 13.9828 28.8803 14.5711L29.1073 14.7671L39.9097 25.5693C40.6287 26.2883 40.694 27.4136 40.1056 28.2064L39.9094 28.4334L29.1052 39.2334C28.3144 40.024 27.0321 40.0238 26.2416 39.2329C25.5228 38.5138 25.4575 37.3888 26.0458 36.5962L26.2421 36.3691L33.5913 29.0231L15.5236 29.0239C14.4985 29.0239 13.6512 28.2623 13.5173 27.2738L13.4986 26.9989C13.4986 25.9737 14.2606 25.1265 15.2488 24.9926L15.5236 24.9739L33.5859 24.9731L26.2437 17.631C25.5247 16.912 25.4594 15.7869 26.0477 14.9942L26.2437 14.7671Z" fill="white" fill-opacity="0.85"/>
    </svg>
    