<svg width="54" height="43" viewBox="0 0 54 43" fill="none" xmlns="http://www.w3.org/2000/svg">
    <path d="M27 0C12.0883 0 0 9.56628 0 21.3669C0 33.1674 12.0883 42.7338 27 42.7338C41.9116 42.7338 54 33.1674 54 21.3669C54 9.56628 41.9116 0 27 0ZM27.7563 31.0476C27.0373 31.6166 25.9124 31.6683 25.1197 31.2027L24.8926 31.0476L14.0903 22.4991C13.3713 21.9301 13.306 21.0396 13.8944 20.4122L14.0906 20.2325L24.8948 11.6858C25.6856 11.0601 26.9679 11.0603 27.7584 11.6862C28.4772 12.2553 28.5425 13.1456 27.9542 13.7728L27.7579 13.9525L20.4087 19.7659L38.4763 19.7652C39.5015 19.7652 40.3488 20.368 40.4827 21.1502L40.5014 21.3678C40.5014 22.1791 39.7394 22.8496 38.7512 22.9555L38.4763 22.9703L20.4141 22.9709L27.7563 28.7812C28.4753 29.3502 28.5406 30.2406 27.9523 30.8679L27.7563 31.0476Z" fill="white" fill-opacity="0.85"/>
    </svg>
    